# xmcd
#
# Track frame offsets:
#	150
#	35354
#	75520
#	99706
#	126105
#	157041
#	182991
#	214043
#
# Disc length: 3394 seconds
#
# Revision: 1
# Processed by: cddbd v1.4PL0 Copyright (c) Steve Scherf et al.
# Submitted via: CDmax 1.8
#
DISCID=660d4008
DTITLE=Paul Engle - Two Trees
DYEAR=2001
DGENRE=Blues
TTITLE0=Her First Breath
TTITLE1=Green Eggs and Hammond
TTITLE2=Two Trees
TTITLE3=Ella's Lullaby
TTITLE4=Grace
TTITLE5=Living on Credit
TTITLE6=Daddy, What's the Moon For?
TTITLE7=The Music Box
EXTD=DISC: 1\nUPC: 808552000123\nLABEL: Plantlife Records\nCAT NO: 0001-2
EXTT0=
EXTT1=
EXTT2=
EXTT3=
EXTT4=
EXTT5=
EXTT6=
EXTT7=
PLAYORDER=
